<svg width="45" height="33" viewBox="0 0 45 33" fill="none" xmlns="http://www.w3.org/2000/svg">
<path d="M12.584 1.2V32H6.864V5.996H0.352V1.2H12.584ZM31.5418 32.44C29.0778 32.44 26.8778 31.824 24.9418 30.592C23.0058 29.3307 21.4805 27.512 20.3658 25.136C19.2511 22.7307 18.6938 19.8853 18.6938 16.6C18.6938 13.3147 19.2511 10.484 20.3658 8.108C21.4805 5.70267 23.0058 3.884 24.9418 2.652C26.8778 1.39066 29.0778 0.759998 31.5418 0.759998C34.0058 0.759998 36.2058 1.39066 38.1418 2.652C40.1071 3.884 41.6471 5.70267 42.7618 8.108C43.8765 10.484 44.4338 13.3147 44.4338 16.6C44.4338 19.8853 43.8765 22.7307 42.7618 25.136C41.6471 27.512 40.1071 29.3307 38.1418 30.592C36.2058 31.824 34.0058 32.44 31.5418 32.44ZM31.5418 27.468C33.7418 27.468 35.4725 26.5587 36.7338 24.74C38.0245 22.9213 38.6698 20.208 38.6698 16.6C38.6698 12.992 38.0245 10.2787 36.7338 8.46C35.4725 6.64133 33.7418 5.732 31.5418 5.732C29.3711 5.732 27.6405 6.64133 26.3498 8.46C25.0885 10.2787 24.4578 12.992 24.4578 16.6C24.4578 20.208 25.0885 22.9213 26.3498 24.74C27.6405 26.5587 29.3711 27.468 31.5418 27.468Z" fill="#81B44B"/>
</svg>
