<svg width="86" height="55" viewBox="0 0 86 55" fill="none" xmlns="http://www.w3.org/2000/svg">
<path d="M7 37V54.5H67.5V50.5" stroke="white"/>
<path d="M7 19V1H67.5V36.5" stroke="white"/>
<path d="M19.008 37.824H13.04L13.056 48H11.888V36.8H19.008V37.824ZM21.7911 48.08C20.9805 48.08 20.2498 47.8987 19.5991 47.536C18.9485 47.1627 18.4365 46.6507 18.0631 46C17.6898 45.3493 17.5031 44.6133 17.5031 43.792C17.5031 42.9707 17.6898 42.2347 18.0631 41.584C18.4365 40.9333 18.9485 40.4267 19.5991 40.064C20.2498 39.7013 20.9805 39.52 21.7911 39.52C22.6018 39.52 23.3325 39.7013 23.9831 40.064C24.6338 40.4267 25.1405 40.9333 25.5031 41.584C25.8765 42.2347 26.0631 42.9707 26.0631 43.792C26.0631 44.6133 25.8765 45.3493 25.5031 46C25.1405 46.6507 24.6338 47.1627 23.9831 47.536C23.3325 47.8987 22.6018 48.08 21.7911 48.08ZM21.7911 47.072C22.3885 47.072 22.9218 46.9387 23.3911 46.672C23.8711 46.3947 24.2445 46.0053 24.5111 45.504C24.7778 45.0027 24.9111 44.432 24.9111 43.792C24.9111 43.152 24.7778 42.5813 24.5111 42.08C24.2445 41.5787 23.8711 41.1947 23.3911 40.928C22.9218 40.6507 22.3885 40.512 21.7911 40.512C21.1938 40.512 20.6551 40.6507 20.1751 40.928C19.7058 41.1947 19.3325 41.5787 19.0551 42.08C18.7885 42.5813 18.6551 43.152 18.6551 43.792C18.6551 44.432 18.7885 45.0027 19.0551 45.504C19.3325 46.0053 19.7058 46.3947 20.1751 46.672C20.6551 46.9387 21.1938 47.072 21.7911 47.072ZM32.827 39.52C33.6163 39.52 34.331 39.7013 34.971 40.064C35.611 40.416 36.1123 40.9173 36.475 41.568C36.8377 42.2187 37.019 42.96 37.019 43.792C37.019 44.6347 36.8377 45.3813 36.475 46.032C36.1123 46.6827 35.611 47.1893 34.971 47.552C34.3417 47.904 33.627 48.08 32.827 48.08C32.1443 48.08 31.5257 47.9413 30.971 47.664C30.427 47.376 29.979 46.96 29.627 46.416V51.104H28.491V39.584H29.579V41.248C29.9203 40.6933 30.3683 40.2667 30.923 39.968C31.4883 39.6693 32.123 39.52 32.827 39.52ZM32.747 47.072C33.3337 47.072 33.867 46.9387 34.347 46.672C34.827 46.3947 35.2003 46.0053 35.467 45.504C35.7443 45.0027 35.883 44.432 35.883 43.792C35.883 43.152 35.7443 42.5867 35.467 42.096C35.2003 41.5947 34.827 41.2053 34.347 40.928C33.867 40.6507 33.3337 40.512 32.747 40.512C32.1497 40.512 31.611 40.6507 31.131 40.928C30.6617 41.2053 30.2883 41.5947 30.011 42.096C29.7443 42.5867 29.611 43.152 29.611 43.792C29.611 44.432 29.7443 45.0027 30.011 45.504C30.2883 46.0053 30.6617 46.3947 31.131 46.672C31.611 46.9387 32.1497 47.072 32.747 47.072ZM39.4598 39.584H40.5958V46.272L46.2118 39.584H47.2198V48H46.0838V41.312L40.4838 48H39.4598V39.584ZM54.3995 43.616C54.9968 43.7547 55.4555 43.9947 55.7755 44.336C56.1062 44.6773 56.2715 45.0933 56.2715 45.584C56.2715 46.0747 56.1008 46.512 55.7595 46.896C55.4288 47.28 54.9755 47.5787 54.3995 47.792C53.8235 47.9947 53.1888 48.096 52.4955 48.096C51.8875 48.096 51.2902 48.0107 50.7035 47.84C50.1168 47.6587 49.6048 47.3973 49.1675 47.056L49.5515 46.208C49.9355 46.496 50.3835 46.72 50.8955 46.88C51.4075 47.04 51.9248 47.12 52.4475 47.12C53.2262 47.12 53.8608 46.976 54.3515 46.688C54.8528 46.3893 55.1035 45.9893 55.1035 45.488C55.1035 45.04 54.9008 44.6933 54.4955 44.448C54.0902 44.192 53.5355 44.064 52.8315 44.064H51.3915V43.232H52.7675C53.3968 43.232 53.9035 43.1147 54.2875 42.88C54.6715 42.6347 54.8635 42.3093 54.8635 41.904C54.8635 41.456 54.6448 41.104 54.2075 40.848C53.7808 40.592 53.2208 40.464 52.5275 40.464C51.6208 40.464 50.7248 40.6933 49.8395 41.152L49.5195 40.272C50.5222 39.7493 51.5622 39.488 52.6395 39.488C53.2795 39.488 53.8555 39.584 54.3675 39.776C54.8902 39.9573 55.2955 40.2187 55.5835 40.56C55.8822 40.9013 56.0315 41.296 56.0315 41.744C56.0315 42.1707 55.8822 42.5493 55.5835 42.88C55.2955 43.2107 54.9008 43.456 54.3995 43.616ZM62.3224 48.08C61.5117 48.08 60.781 47.8987 60.1304 47.536C59.4797 47.1627 58.9677 46.6507 58.5944 46C58.221 45.3493 58.0344 44.6133 58.0344 43.792C58.0344 42.9707 58.221 42.2347 58.5944 41.584C58.9677 40.9333 59.4797 40.4267 60.1304 40.064C60.781 39.7013 61.5117 39.52 62.3224 39.52C63.133 39.52 63.8637 39.7013 64.5144 40.064C65.165 40.4267 65.6717 40.9333 66.0344 41.584C66.4077 42.2347 66.5944 42.9707 66.5944 43.792C66.5944 44.6133 66.4077 45.3493 66.0344 46C65.6717 46.6507 65.165 47.1627 64.5144 47.536C63.8637 47.8987 63.133 48.08 62.3224 48.08ZM62.3224 47.072C62.9197 47.072 63.453 46.9387 63.9224 46.672C64.4024 46.3947 64.7757 46.0053 65.0424 45.504C65.309 45.0027 65.4424 44.432 65.4424 43.792C65.4424 43.152 65.309 42.5813 65.0424 42.08C64.7757 41.5787 64.4024 41.1947 63.9224 40.928C63.453 40.6507 62.9197 40.512 62.3224 40.512C61.725 40.512 61.1864 40.6507 60.7064 40.928C60.237 41.1947 59.8637 41.5787 59.5864 42.08C59.3197 42.5813 59.1864 43.152 59.1864 43.792C59.1864 44.432 59.3197 45.0027 59.5864 45.504C59.8637 46.0053 60.237 46.3947 60.7064 46.672C61.1864 46.9387 61.725 47.072 62.3224 47.072ZM69.0223 39.584H70.1583V43.312H75.4543V39.584H76.5903V48H75.4543V44.288H70.1583V48H69.0223V39.584ZM85.7391 40.592H82.5551V48H81.4191V40.592H78.2351V39.584H85.7391V40.592Z" fill="white"/>
<path d="M11.248 20.8V32H10.08V26.832H3.072V32H1.888V20.8H3.072V25.792H10.08V20.8H11.248ZM18.2286 32.08C17.418 32.08 16.6873 31.8987 16.0366 31.536C15.386 31.1627 14.874 30.6507 14.5006 30C14.1273 29.3493 13.9406 28.6133 13.9406 27.792C13.9406 26.9707 14.1273 26.2347 14.5006 25.584C14.874 24.9333 15.386 24.4267 16.0366 24.064C16.6873 23.7013 17.418 23.52 18.2286 23.52C19.0393 23.52 19.77 23.7013 20.4206 24.064C21.0713 24.4267 21.578 24.9333 21.9406 25.584C22.314 26.2347 22.5006 26.9707 22.5006 27.792C22.5006 28.6133 22.314 29.3493 21.9406 30C21.578 30.6507 21.0713 31.1627 20.4206 31.536C19.77 31.8987 19.0393 32.08 18.2286 32.08ZM18.2286 31.072C18.826 31.072 19.3593 30.9387 19.8286 30.672C20.3086 30.3947 20.682 30.0053 20.9486 29.504C21.2153 29.0027 21.3486 28.432 21.3486 27.792C21.3486 27.152 21.2153 26.5813 20.9486 26.08C20.682 25.5787 20.3086 25.1947 19.8286 24.928C19.3593 24.6507 18.826 24.512 18.2286 24.512C17.6313 24.512 17.0926 24.6507 16.6126 24.928C16.1433 25.1947 15.77 25.5787 15.4926 26.08C15.226 26.5813 15.0926 27.152 15.0926 27.792C15.0926 28.432 15.226 29.0027 15.4926 29.504C15.77 30.0053 16.1433 30.3947 16.6126 30.672C17.0926 30.9387 17.6313 31.072 18.2286 31.072ZM30.2885 27.648C31.4298 27.9147 32.0005 28.6027 32.0005 29.712C32.0005 30.448 31.7285 31.0133 31.1845 31.408C30.6405 31.8027 29.8298 32 28.7525 32H24.9285V23.584H28.6405C29.6005 23.584 30.3525 23.7707 30.8965 24.144C31.4405 24.5173 31.7125 25.0507 31.7125 25.744C31.7125 26.2027 31.5845 26.5973 31.3285 26.928C31.0832 27.248 30.7365 27.488 30.2885 27.648ZM26.0325 27.328H28.5605C29.2112 27.328 29.7072 27.2053 30.0485 26.96C30.4005 26.7147 30.5765 26.3573 30.5765 25.888C30.5765 25.4187 30.4005 25.0667 30.0485 24.832C29.7072 24.5973 29.2112 24.48 28.5605 24.48H26.0325V27.328ZM28.7045 31.104C29.4298 31.104 29.9738 30.9867 30.3365 30.752C30.6992 30.5173 30.8805 30.1493 30.8805 29.648C30.8805 29.1467 30.7152 28.7787 30.3845 28.544C30.0538 28.2987 29.5312 28.176 28.8165 28.176H26.0325V31.104H28.7045ZM38.1989 26.56C39.2549 26.5707 40.0602 26.8053 40.6149 27.264C41.1695 27.7227 41.4469 28.384 41.4469 29.248C41.4469 30.144 41.1482 30.832 40.5509 31.312C39.9535 31.792 39.1002 32.0267 37.9909 32.016L34.6629 32V23.584H35.7989V26.528L38.1989 26.56ZM42.8549 23.584H43.9909V32H42.8549V23.584ZM37.9269 31.152C38.7055 31.1627 39.2922 31.008 39.6869 30.688C40.0922 30.3573 40.2949 29.8773 40.2949 29.248C40.2949 28.6293 40.0975 28.1707 39.7029 27.872C39.3082 27.5733 38.7162 27.4187 37.9269 27.408L35.7989 27.376V31.12L37.9269 31.152ZM47.2254 23.584H48.3614V30.272L53.9774 23.584H54.9854V32H53.8494V25.312L48.2494 32H47.2254V23.584ZM51.0494 22.368C50.324 22.368 49.748 22.1867 49.3214 21.824C48.8947 21.4613 48.676 20.9493 48.6654 20.288H49.4814C49.492 20.704 49.6414 21.04 49.9294 21.296C50.2174 21.5413 50.5907 21.664 51.0494 21.664C51.508 21.664 51.8814 21.5413 52.1694 21.296C52.468 21.04 52.6227 20.704 52.6334 20.288H53.4494C53.4387 20.9493 53.2147 21.4613 52.7774 21.824C52.3507 22.1867 51.7747 22.368 51.0494 22.368Z" fill="white"/>
</svg>
