<svg width="22" height="13" viewBox="0 0 22 13" fill="none" xmlns="http://www.w3.org/2000/svg">
<path fill-rule="evenodd" clip-rule="evenodd" d="M12.1759 12.5163C11.8661 12.826 11.446 13 11.0079 13C10.5699 13 10.1497 12.826 9.83994 12.5163L0.494571 3.17095C0.336788 3.01856 0.210935 2.83627 0.124355 2.63472C0.0377754 2.43316 -0.00779715 2.21639 -0.00970325 1.99704C-0.0116094 1.77769 0.0301895 1.56015 0.113254 1.35713C0.196318 1.1541 0.318984 0.969651 0.474095 0.814541C0.629206 0.65943 0.813654 0.536763 1.01668 0.453699C1.2197 0.370635 1.43724 0.328837 1.65659 0.330743C1.87594 0.332649 2.09272 0.378222 2.29427 0.464802C2.49582 0.551381 2.67811 0.677234 2.8305 0.835017L11.0079 9.01242L19.1853 0.835017C19.4969 0.534092 19.9142 0.367579 20.3473 0.371344C20.7805 0.375107 21.1948 0.548846 21.5011 0.855141C21.8074 1.16144 21.9812 1.57578 21.9849 2.00893C21.9887 2.44208 21.8222 2.85938 21.5212 3.17095L12.1759 12.5163Z" fill="#81B44B"/>
</svg>
